<svg width="29" height="29" viewBox="0 0 29 29" fill="none" xmlns="http://www.w3.org/2000/svg">
<path d="M25.9158 0H11.0792C11.0792 0 9.34158 0 8.29455 0C8.08663 0 7.87871 0.00776778 7.66337 0.0233034C4.57426 0.27964 3.0297 1.74775 2.2797 2.92845C1.29208 4.48978 1.08416 6.50164 1.70792 8.46688C2.52475 11.0303 4.81188 18.231 4.81188 18.231L0 21.7498L0.282178 22.511C0.304455 22.5732 0.861386 24.0335 2.10148 25.4861C3.7797 27.4591 5.92574 28.5 8.30198 28.5H23.2797L28.5 6.09771L25.9158 0Z" fill="#FC0001"/>
<path d="M6.52728 6.82018C6.15599 5.21225 8.62877 3.79851 9.83916 6.57938L13.3812 5.33653C13.3812 5.33653 12.4456 0.675863 7.73768 1.06425C3.02976 1.45264 1.67085 5.04136 2.65847 8.13294C4.1956 12.9645 10.0694 18.2777 10.6783 21.8897C10.9827 23.7151 7.36639 25.3075 4.47778 19.7458L1.21045 22.1383C1.21045 22.1383 3.61639 28.5622 9.88372 27.3116C15.2451 26.2396 16.1139 21.5324 13.6634 17.7495C10.8416 13.4073 6.89857 8.43588 6.52728 6.82018Z" fill="white"/>
<path d="M25.2253 1.04077H11.0792C11.9406 1.52237 12.5495 2.18264 12.9579 2.78076C13.6337 3.75173 13.9159 4.7227 13.9975 5.06448H17.2946V26.7055H21.9802V5.06448H26.6659L25.2178 1.04077H25.2253Z" fill="white"/>
</svg>
