<svg width="196" height="40" viewBox="0 0 196 40" fill="none" xmlns="http://www.w3.org/2000/svg">
<g clip-path="url(#clip0_4329_13095)">
<path d="M25.9158 5.77808H11.0792C11.0792 5.77808 9.34158 5.77808 8.29455 5.77808C8.08663 5.77808 7.87871 5.78584 7.66337 5.80138C4.57426 6.05772 3.0297 7.52583 2.2797 8.70653C1.29208 10.2679 1.08416 12.2797 1.70792 14.245C2.52475 16.8083 4.81188 24.0091 4.81188 24.0091L0 27.5279L0.282178 28.2891C0.304455 28.3513 0.861386 29.8116 2.10149 31.2642C3.7797 33.2372 5.92574 34.2781 8.30198 34.2781H23.2797L28.5 11.8758L25.9158 5.77808Z" fill="#FC0001"/>
<path d="M6.52722 12.5983C6.15593 10.9903 8.62871 9.57659 9.8391 12.3575L13.3812 11.1146C13.3812 11.1146 12.4455 6.45394 7.73762 6.84233C3.0297 7.23072 1.67078 10.8194 2.65841 13.911C4.19554 18.7426 10.0693 24.0557 10.6782 27.6678C10.9827 29.4932 7.36633 31.0856 4.47772 25.5238L1.21039 27.9163C1.21039 27.9163 3.61633 34.3403 9.88366 33.0897C15.245 32.0177 16.1139 27.3104 13.6634 23.5275C10.8416 19.1853 6.89851 14.214 6.52722 12.5983Z" fill="white"/>
<path d="M25.2253 6.81885H11.0792C11.9406 7.30045 12.5495 7.96071 12.9579 8.55883C13.6337 9.5298 13.9159 10.5008 13.9975 10.8426H17.2946V32.4836H21.9802V10.8426H26.6659L25.2178 6.81885H25.2253Z" fill="white"/>
<path d="M36.1712 11.5373L39.0924 17.2611H40.4462V8.99609H39.1162V14.7594L36.1712 8.99609H34.8333V17.2611H36.1712V11.5373Z" fill="#333333"/>
<path d="M43.3832 13.5957H46.2411V17.2611H47.6186V8.99609H46.2411V12.4319H43.3832V8.99609H41.9978V17.2611H43.3832V13.5957Z" fill="#333333"/>
<path d="M52.6537 8.4894L51.5454 6.77148H49.9858L51.5137 8.4894H52.6537Z" fill="#333333"/>
<path d="M50.6666 15.3532H53.192L53.7304 17.269H55.1791L52.5429 8.99609H51.3158L48.6874 17.269H50.1283L50.6666 15.3532ZM51.9254 10.8644L52.8595 14.1973H50.9912L51.9254 10.8644Z" fill="#333333"/>
<path d="M59.8816 17.2611L61.2512 14.2528L62.6129 17.2611H64.2121L62.0983 13.089L64.1645 8.99609H62.6129L61.2908 11.9411L59.9371 8.99609H58.3537L60.4358 13.0732L58.3062 17.2611H59.8816Z" fill="#333333"/>
<path d="M69.049 14.7357C69.049 15.1315 69.0015 15.4323 68.8986 15.654C68.7957 15.8757 68.6532 16.0182 68.4632 16.1053C68.2732 16.1923 68.0515 16.2319 67.7824 16.2319C67.5132 16.2319 67.2915 16.1923 67.1015 16.1053C66.9115 16.0182 66.769 15.8757 66.674 15.654C66.579 15.4323 66.5236 15.1315 66.5236 14.7357V8.99609H65.1461V14.7357C65.1461 15.369 65.2569 15.8757 65.4865 16.2636C65.7161 16.6515 66.0249 16.9286 66.4207 17.1107C66.8165 17.2848 67.2678 17.3798 67.7745 17.3798C68.2811 17.3798 68.7086 17.2928 69.1045 17.1107C69.5003 16.9286 69.8249 16.6515 70.0624 16.2636C70.2999 15.8757 70.4186 15.369 70.4186 14.7357V8.99609H69.0411V14.7357H69.049Z" fill="#333333"/>
<path d="M77.7336 6.1145H76.5699L75.8416 7.62659H76.657L77.7336 6.1145Z" fill="#333333"/>
<path d="M73.1183 15.3532H75.6437L76.182 17.269H77.6308L74.9945 8.99609H73.7674L71.1391 17.269H72.5799L73.1183 15.3532ZM74.377 10.8644L75.3112 14.1973H73.4428L74.377 10.8644Z" fill="#333333"/>
<path d="M74.3928 7.70591L75.1053 8.5055H76.2136L74.8045 7.10425H73.9811L72.572 8.5055H73.6645L74.3928 7.70591Z" fill="#333333"/>
<path d="M77.4091 10.1519H79.4912V17.2611H80.8687V10.1519H82.9745V8.99609H80.8687H79.4912H77.4091V10.1519Z" fill="#333333"/>
<path d="M90.7882 13.1762C90.6457 13.0733 90.4795 13.002 90.2974 12.9545C90.3687 12.9229 90.4557 12.8991 90.5191 12.8516C90.8041 12.6695 91.0178 12.4399 91.1603 12.1549C91.3028 11.8699 91.3741 11.5612 91.3741 11.2287C91.3741 10.8408 91.3187 10.5083 91.2078 10.2312C91.097 9.95411 90.9307 9.71661 90.717 9.53453C90.5032 9.35245 90.242 9.20995 89.9412 9.12286C89.6403 9.03578 89.292 8.98828 88.9041 8.98828H86.442V17.2612H89.0466C89.5691 17.2612 90.0045 17.1662 90.3766 16.9841C90.7407 16.802 91.0257 16.5329 91.2237 16.1687C91.4216 15.8124 91.5166 15.3691 91.5166 14.8387C91.5166 14.4983 91.4612 14.1816 91.3424 13.8887C91.2237 13.5958 91.0416 13.3504 90.7882 13.1604V13.1762ZM88.9041 10.152C89.1574 10.152 89.3553 10.1916 89.5216 10.2708C89.6878 10.3499 89.7987 10.4766 89.8778 10.6508C89.957 10.8249 89.9966 11.0466 89.9966 11.3158C89.9966 11.5612 89.957 11.7749 89.8699 11.9491C89.7828 12.1233 89.6641 12.2579 89.4978 12.3449C89.3316 12.432 89.1416 12.4795 88.9041 12.4795H87.8274V10.152H88.912H88.9041ZM90.0124 15.5116C89.9332 15.7016 89.8145 15.852 89.6562 15.9549C89.4978 16.0579 89.292 16.1133 89.0466 16.1133H87.8195V13.5404H89.0941C89.3474 13.5404 89.5453 13.5958 89.6957 13.6987C89.8462 13.8016 89.957 13.9599 90.0282 14.1499C90.0995 14.3479 90.1312 14.5774 90.1312 14.8466C90.1312 15.1158 90.0916 15.3216 90.0124 15.5116Z" fill="#333333"/>
<path d="M95.4829 6.81113C95.5383 6.8428 95.5858 6.88238 95.6175 6.9378C95.6491 6.99321 95.665 7.05655 95.665 7.1278C95.665 7.21488 95.6412 7.28613 95.6016 7.34155C95.5541 7.39696 95.4908 7.43655 95.3958 7.46821C95.3008 7.49988 95.182 7.51571 95.0316 7.53155L95.0791 8.33905H96.0529V7.95905C96.2191 7.92738 96.3775 7.84821 96.52 7.72155C96.6625 7.59488 96.7416 7.38905 96.7416 7.11988C96.7416 6.95363 96.702 6.80321 96.6308 6.66863C96.5595 6.53405 96.4566 6.42321 96.3141 6.32821C96.1716 6.23321 95.9975 6.16196 95.7837 6.11446C95.57 6.06696 95.3245 6.04321 95.0395 6.04321L95.0079 6.73988C95.1029 6.73988 95.1979 6.73988 95.277 6.76363C95.3562 6.77946 95.4275 6.80321 95.4829 6.83488V6.81113Z" fill="#333333"/>
<path d="M94.2795 15.3532H96.8049L97.3432 17.269H98.792L96.1557 8.99609H94.9287L92.3003 17.269H93.7412L94.2795 15.3532ZM95.5382 10.8644L96.4724 14.1973H94.6041L95.5382 10.8644Z" fill="#333333"/>
<path d="M101.072 11.5373L103.985 17.2611H105.339V8.99609H104.009V14.7594L101.072 8.99609H99.7341V17.2611H101.072V11.5373Z" fill="#333333"/>
<path d="M37.0816 25.2332C37.1212 24.9323 37.1766 24.6948 37.2637 24.5127C37.3508 24.3307 37.4616 24.1961 37.5962 24.1169C37.7308 24.0377 37.9049 23.9982 38.1028 23.9982C38.3958 23.9982 38.6333 24.0457 38.8074 24.1407C38.9816 24.2357 39.1083 24.394 39.1795 24.6236C39.2508 24.8532 39.2745 25.1619 39.2508 25.5657H41.4041C41.3883 24.8769 41.2458 24.2911 40.9924 23.7923C40.7391 23.2936 40.3591 22.9215 39.8762 22.6602C39.3933 22.399 38.7995 22.2644 38.1028 22.2644C37.6041 22.2644 37.1528 22.3594 36.7491 22.5415C36.3453 22.7236 35.997 22.9927 35.7199 23.349C35.4349 23.7052 35.2212 24.1327 35.0628 24.6315C34.9124 25.1382 34.8333 25.7002 34.8333 26.3336V27.6082C34.8333 28.2415 34.9045 28.8115 35.047 29.3182C35.1895 29.8169 35.4033 30.2444 35.6803 30.6007C35.9574 30.949 36.3058 31.2182 36.7174 31.4082C37.1291 31.5902 37.5962 31.6852 38.1345 31.6852C38.7916 31.6852 39.3695 31.5586 39.8603 31.3132C40.3512 31.0677 40.7312 30.7036 41.0003 30.2127C41.2695 29.7298 41.4041 29.144 41.3962 28.4552H39.2428C39.2666 28.859 39.227 29.1677 39.1399 29.3815C39.0528 29.5952 38.9183 29.7457 38.752 29.8248C38.5858 29.904 38.372 29.9436 38.1266 29.9436C37.8812 29.9436 37.707 29.904 37.5645 29.8248C37.422 29.7457 37.3033 29.6111 37.2241 29.429C37.1449 29.2469 37.0895 29.0094 37.0578 28.7086C37.0262 28.4077 37.0103 28.0436 37.0103 27.6002V26.3098C37.0103 25.8744 37.0262 25.5102 37.0658 25.2173L37.0816 25.2332Z" fill="#333333"/>
<path d="M46.8112 26.0407H44.5075V22.407H42.3541V31.5587H44.5075V27.7349H46.8112V31.5587H48.9645V22.407H46.8112V26.0407Z" fill="#333333"/>
<path d="M52.4479 22.407H50.3025V31.5587H52.4479V22.407Z" fill="#333333"/>
<path d="M52.1312 21.9241L53.8808 19.9529H51.6483L50.3975 21.9241H52.1312Z" fill="#333333"/>
<path d="M58.2508 28.0991L55.9549 22.407H53.8095V31.5587H55.9549V25.8666L58.2508 31.5587H60.3962V22.407H58.2508V28.0991Z" fill="#333333"/>
<path d="M66.0962 26.0407H63.7924V22.407H61.6391V31.5587H63.7924V27.7349H66.0962V31.5587H68.2495V22.407H66.0962V26.0407Z" fill="#333333"/>
<path d="M73.91 22.407H71.7566V24.1091H73.91V31.5587H76.0712V24.1091H78.2879V22.407H76.0712H73.91Z" fill="#333333"/>
<path d="M84.5896 27.3548C84.8271 27.1252 85.0171 26.8323 85.1437 26.4839C85.2704 26.1356 85.3416 25.6923 85.3416 25.1698C85.3416 24.5681 85.2229 24.0614 84.9775 23.6498C84.74 23.2381 84.3916 22.9293 83.9404 22.7156C83.4891 22.5018 82.9587 22.3989 82.3491 22.3989H79.2141V31.5506H81.3675V28.3206H81.9771L83.2754 31.5506H85.5791V31.4556L84.0354 27.7427C84.2333 27.6239 84.4233 27.4973 84.5816 27.3468L84.5896 27.3548ZM81.3754 24.1089H82.3571C82.5471 24.1089 82.6975 24.1564 82.8162 24.2593C82.935 24.3623 83.03 24.5048 83.0933 24.6948C83.1566 24.8848 83.1883 25.1064 83.1883 25.3756C83.1883 25.6448 83.1566 25.8585 83.0933 26.0485C83.03 26.2385 82.9271 26.381 82.8004 26.476C82.6737 26.571 82.5075 26.6264 82.3096 26.6264H81.3754V24.1089Z" fill="#333333"/>
<path d="M87.7087 32.0654C87.3604 32.0654 87.0754 32.1525 86.8617 32.3346C86.64 32.5167 86.5371 32.7383 86.5371 33.0075C86.5371 33.2767 86.6479 33.4983 86.8617 33.6804C87.0833 33.8625 87.3604 33.9496 87.7087 33.9496C88.0571 33.9496 88.3421 33.8625 88.5558 33.6804C88.7696 33.5063 88.8804 33.2767 88.8804 33.0075C88.8804 32.7383 88.7696 32.5167 88.5558 32.3346C88.3342 32.1604 88.0571 32.0654 87.7087 32.0654Z" fill="#333333"/>
<path d="M88.7696 22.407H86.6241V31.5587H88.7696V22.407Z" fill="#333333"/>
<path d="M98.8157 23.2936C98.5149 22.9532 98.1507 22.6999 97.7391 22.5336C97.3274 22.3674 96.8682 22.2803 96.3616 22.2803C95.8549 22.2803 95.3957 22.3674 94.9761 22.5336C94.5645 22.6999 94.2082 22.9611 93.9074 23.2936C93.6066 23.634 93.377 24.0536 93.2107 24.5524C93.0445 25.0511 92.9653 25.6369 92.9653 26.294V27.6715C92.9653 28.3365 93.0445 28.9144 93.2107 29.4132C93.377 29.9119 93.6066 30.3315 93.9074 30.664C94.2082 31.0044 94.5645 31.2578 94.9841 31.424C95.3957 31.5903 95.8628 31.6774 96.3695 31.6774C96.4882 31.6774 96.5911 31.6536 96.702 31.6457L98.4199 33.2211L99.7578 32.0653L98.507 30.9411C98.6178 30.854 98.7286 30.7669 98.8236 30.6561C99.1245 30.3157 99.362 29.904 99.5282 29.4053C99.6945 28.9065 99.7736 28.3286 99.7736 27.6636V26.2861C99.7736 25.6211 99.6945 25.0432 99.5282 24.5444C99.362 24.0457 99.1324 23.6261 98.8236 23.2857L98.8157 23.2936ZM95.4432 29.429C95.3482 29.2469 95.2691 29.0094 95.2295 28.7165C95.182 28.4236 95.1582 28.0832 95.1582 27.6715V26.2861C95.1582 25.8744 95.182 25.5261 95.2295 25.2332C95.277 24.9403 95.3482 24.7107 95.4432 24.5286C95.5382 24.3465 95.6649 24.2199 95.8153 24.1328C95.9657 24.0457 96.1478 24.0061 96.3616 24.0061C96.5595 24.0061 96.7416 24.0457 96.892 24.1328C97.0424 24.2199 97.1691 24.3465 97.272 24.5286C97.3749 24.7107 97.4541 24.9403 97.5016 25.2332C97.5491 25.5261 97.5807 25.8744 97.5807 26.2861V27.6715C97.5807 28.0753 97.557 28.4236 97.5016 28.7165C97.4461 29.0094 97.3749 29.239 97.272 29.429C97.1691 29.6111 97.0424 29.7457 96.892 29.8328C96.7416 29.9199 96.5595 29.9594 96.3616 29.9594C96.1478 29.9594 95.9657 29.9199 95.8153 29.8328C95.6649 29.7457 95.5382 29.6111 95.4432 29.429Z" fill="#333333"/>
<path d="M104.896 28.6374C104.896 29.0174 104.864 29.3024 104.801 29.4924C104.737 29.6824 104.635 29.817 104.5 29.8882C104.365 29.9595 104.183 29.9912 103.97 29.9912C103.756 29.9912 103.574 29.9595 103.439 29.8882C103.297 29.8249 103.194 29.6903 103.122 29.4924C103.051 29.2945 103.02 29.0095 103.02 28.6374V22.407H100.858V28.6374C100.858 29.3499 100.993 29.9278 101.254 30.3791C101.515 30.8303 101.88 31.1628 102.347 31.3686C102.814 31.5745 103.36 31.6853 103.977 31.6853C104.595 31.6853 105.149 31.5824 105.608 31.3686C106.067 31.1549 106.432 30.8303 106.685 30.3791C106.938 29.9278 107.065 29.3499 107.065 28.6374V22.407H104.912V28.6374H104.896Z" fill="#333333"/>
<path d="M111.522 21.2275L112.219 21.9559H113.509L112.005 20.5784H111.055L109.543 21.9559H110.833L111.522 21.2275Z" fill="#333333"/>
<path d="M114.008 23.3015C113.707 22.969 113.351 22.7157 112.939 22.5415C112.52 22.3674 112.06 22.2803 111.562 22.2803C111.063 22.2803 110.596 22.3674 110.176 22.5415C109.765 22.7157 109.4 22.969 109.107 23.3015C108.807 23.634 108.577 24.0536 108.411 24.5603C108.245 25.059 108.165 25.6449 108.165 26.3019V27.6874C108.165 28.3444 108.245 28.9224 108.411 29.4211C108.577 29.9199 108.807 30.3394 109.107 30.6719C109.408 31.0124 109.765 31.2657 110.184 31.4319C110.596 31.5982 111.063 31.6853 111.57 31.6853C112.076 31.6853 112.527 31.5982 112.947 31.4319C113.359 31.2657 113.715 31.0124 114.016 30.6719C114.317 30.3315 114.554 29.9199 114.712 29.4211C114.871 28.9224 114.958 28.3444 114.958 27.6874V26.3019C114.958 25.6449 114.879 25.0669 114.712 24.5603C114.546 24.0536 114.317 23.634 114.016 23.3015H114.008ZM112.773 27.6874C112.773 28.0911 112.749 28.4394 112.694 28.7244C112.646 29.0094 112.567 29.2469 112.472 29.429C112.377 29.6111 112.25 29.7457 112.092 29.8328C111.934 29.9199 111.76 29.9594 111.562 29.9594C111.364 29.9594 111.166 29.9199 111.015 29.8328C110.857 29.7457 110.73 29.6111 110.635 29.429C110.54 29.2469 110.461 29.0094 110.422 28.7244C110.374 28.4394 110.35 28.0911 110.35 27.6874V26.294C110.35 25.8824 110.374 25.534 110.422 25.2411C110.469 24.9482 110.54 24.7186 110.635 24.5365C110.73 24.3544 110.857 24.2278 111.007 24.1407C111.158 24.0536 111.34 24.014 111.554 24.014C111.767 24.014 111.934 24.0536 112.084 24.1407C112.235 24.2278 112.361 24.3544 112.464 24.5365C112.567 24.7186 112.638 24.9482 112.694 25.2411C112.749 25.534 112.773 25.8824 112.773 26.294V27.6874Z" fill="#333333"/>
<path d="M113.105 21.2115H114.15L115.496 19.4778H114.055L113.105 21.2115Z" fill="#333333"/>
<path d="M118.164 25.2332C118.204 24.9323 118.259 24.6948 118.346 24.5127C118.433 24.3307 118.544 24.1961 118.679 24.1169C118.813 24.0377 118.987 23.9982 119.185 23.9982C119.478 23.9982 119.716 24.0457 119.89 24.1407C120.064 24.2357 120.191 24.394 120.262 24.6236C120.333 24.8532 120.357 25.1619 120.333 25.5657H122.487C122.471 24.8769 122.328 24.2911 122.075 23.7923C121.822 23.2936 121.442 22.9215 120.959 22.6602C120.476 22.399 119.882 22.2644 119.185 22.2644C118.687 22.2644 118.235 22.3594 117.832 22.5415C117.428 22.7236 117.08 22.9927 116.802 23.349C116.517 23.7052 116.304 24.1327 116.145 24.6315C115.995 25.1382 115.916 25.7002 115.916 26.3336V27.6082C115.916 28.2415 115.987 28.8115 116.13 29.3182C116.272 29.8169 116.486 30.2444 116.763 30.6007C117.04 30.949 117.388 31.2182 117.8 31.4082C118.212 31.5902 118.679 31.6852 119.217 31.6852C119.874 31.6852 120.452 31.5586 120.943 31.3132C121.434 31.0677 121.814 30.7036 122.083 30.2127C122.352 29.7298 122.487 29.144 122.479 28.4552H120.325C120.349 28.859 120.31 29.1677 120.222 29.3815C120.135 29.5952 120.001 29.7457 119.835 29.8248C119.668 29.904 119.455 29.9436 119.209 29.9436C118.964 29.9436 118.79 29.904 118.647 29.8248C118.505 29.7457 118.386 29.6111 118.307 29.429C118.227 29.2469 118.172 29.0094 118.14 28.7086C118.109 28.4077 118.093 28.0436 118.093 27.6002V26.3098C118.093 25.8744 118.109 25.5102 118.148 25.2173L118.164 25.2332Z" fill="#333333"/>
<path d="M129.62 28.1861H130.712V29.6665C130.665 29.6903 130.609 29.7219 130.538 29.7774C130.467 29.8328 130.38 29.8803 130.277 29.9199C130.174 29.9594 130.039 29.9832 129.881 29.9832C129.62 29.9832 129.406 29.9436 129.224 29.8644C129.042 29.7853 128.907 29.6586 128.804 29.4844C128.701 29.3103 128.622 29.0807 128.575 28.7957C128.527 28.5107 128.503 28.1544 128.503 27.7428V26.2149C128.503 25.7953 128.527 25.439 128.582 25.154C128.638 24.869 128.709 24.6315 128.812 24.4574C128.915 24.2832 129.042 24.1565 129.192 24.0853C129.342 24.0061 129.509 23.9744 129.707 23.9744C129.944 23.9744 130.142 24.0219 130.3 24.109C130.459 24.1961 130.578 24.3465 130.657 24.5603C130.744 24.7661 130.791 25.0511 130.807 25.3994H132.865C132.85 24.7424 132.731 24.1803 132.493 23.7211C132.256 23.2619 131.908 22.9057 131.433 22.6524C130.958 22.4069 130.356 22.2803 129.628 22.2803C129.137 22.2803 128.693 22.3594 128.29 22.5257C127.886 22.684 127.538 22.9294 127.245 23.254C126.952 23.5786 126.722 23.9903 126.564 24.489C126.405 24.9878 126.318 25.5736 126.318 26.2386V27.7507C126.318 28.4236 126.397 29.0094 126.556 29.5003C126.714 29.9911 126.944 30.4028 127.237 30.7274C127.53 31.0519 127.894 31.2974 128.305 31.4557C128.717 31.614 129.192 31.6932 129.722 31.6932C130.285 31.6932 130.783 31.6219 131.195 31.4794C131.615 31.3369 131.955 31.1786 132.232 30.9886C132.509 30.7986 132.715 30.6403 132.858 30.4978V26.674H129.612V28.1861H129.62Z" fill="#333333"/>
<path d="M136.27 22.407H134.124V31.5587H136.27V22.407Z" fill="#333333"/>
<path d="M141.447 22.407H139.998L137.172 31.5587H139.484L139.887 29.8486H142.12L142.524 31.5587H144.835L142.009 22.407H141.447ZM140.299 28.1466L141.012 25.1145L141.724 28.1466H140.299Z" fill="#333333"/>
<path d="M151.066 24.0695C151.192 23.9825 151.343 23.9429 151.525 23.9429C151.723 23.9429 151.889 23.9904 152.016 24.0933C152.142 24.1962 152.23 24.3308 152.293 24.505C152.348 24.6791 152.38 24.885 152.38 25.1145H154.525C154.525 24.5366 154.399 24.0379 154.153 23.6104C153.9 23.1829 153.56 22.8583 153.116 22.6208C152.673 22.3833 152.166 22.2725 151.588 22.2725C151.153 22.2725 150.749 22.3358 150.385 22.4545C150.013 22.5733 149.696 22.7475 149.427 22.9691C149.158 23.1908 148.944 23.46 148.794 23.7766C148.643 24.0933 148.564 24.4495 148.564 24.8454C148.564 25.2412 148.635 25.6133 148.794 25.922C148.944 26.2308 149.142 26.5 149.395 26.7295C149.649 26.9591 149.926 27.157 150.242 27.3233C150.559 27.4895 150.876 27.6479 151.2 27.7825C151.462 27.8933 151.667 28.0041 151.826 28.107C151.984 28.21 152.095 28.3129 152.174 28.4079C152.253 28.5029 152.301 28.6137 152.332 28.7325C152.356 28.8512 152.372 28.9779 152.372 29.1204C152.372 29.2866 152.348 29.437 152.309 29.5716C152.269 29.7062 152.19 29.817 152.087 29.8962C151.984 29.9754 151.834 30.0229 151.636 30.0229C151.43 30.0229 151.248 29.9991 151.105 29.9516C150.963 29.9041 150.844 29.825 150.757 29.7141C150.67 29.6033 150.599 29.4529 150.559 29.2708C150.52 29.0887 150.496 28.8591 150.496 28.59H148.335C148.335 29.1283 148.43 29.5954 148.62 29.9912C148.81 30.387 149.063 30.7037 149.38 30.9491C149.696 31.2025 150.052 31.3845 150.44 31.5033C150.836 31.622 151.232 31.6854 151.636 31.6854C152.079 31.6854 152.483 31.63 152.831 31.5191C153.18 31.4083 153.488 31.242 153.742 31.0204C153.995 30.7987 154.185 30.5295 154.32 30.2129C154.454 29.8962 154.517 29.532 154.517 29.1204C154.517 28.7325 154.462 28.392 154.351 28.0833C154.24 27.7745 154.074 27.5054 153.86 27.26C153.647 27.0145 153.37 26.8008 153.053 26.6108C152.736 26.4208 152.364 26.2466 151.952 26.0962C151.778 26.0091 151.62 25.93 151.47 25.835C151.319 25.7479 151.192 25.6529 151.082 25.5579C150.971 25.4629 150.884 25.36 150.82 25.2491C150.757 25.1383 150.725 25.0116 150.725 24.877C150.725 24.7108 150.757 24.5525 150.82 24.4179C150.884 24.2754 150.979 24.1645 151.097 24.0854L151.066 24.0695Z" fill="#333333"/>
<path d="M162.68 22.9454C162.648 23.2383 162.553 23.4679 162.402 23.6262C162.276 23.7529 162.062 23.8162 161.785 23.8399V22.3991H159.632V28.3762C159.632 28.7562 159.6 29.057 159.537 29.2945C159.473 29.532 159.37 29.7062 159.236 29.817C159.101 29.9279 158.919 29.9833 158.705 29.9833C158.492 29.9833 158.31 29.9279 158.175 29.817C158.032 29.7062 157.93 29.532 157.858 29.2945C157.787 29.057 157.755 28.7483 157.755 28.3762V22.3991H155.594V28.3762C155.594 29.0887 155.729 29.6904 155.99 30.1812C156.251 30.672 156.615 31.0441 157.082 31.2974C157.55 31.5508 158.096 31.6774 158.713 31.6774C159.331 31.6774 159.885 31.5508 160.344 31.2974C160.803 31.0441 161.167 30.672 161.421 30.1812C161.674 29.6904 161.801 29.0887 161.801 28.3762V24.8849C162.331 24.8612 162.759 24.7504 163.067 24.5366C163.408 24.2991 163.645 23.9587 163.78 23.5074C163.915 23.0562 163.978 22.5179 163.978 21.8845H162.743C162.743 22.2883 162.727 22.6445 162.695 22.9374L162.68 22.9454Z" fill="#333333"/>
<path d="M159.022 32.1287C158.674 32.1287 158.389 32.2157 158.175 32.3978C157.953 32.572 157.85 32.8016 157.85 33.0707C157.85 33.3399 157.961 33.5616 158.175 33.7437C158.397 33.9178 158.674 34.0128 159.022 34.0128C159.37 34.0128 159.655 33.9257 159.869 33.7437C160.091 33.5616 160.194 33.3399 160.194 33.0707C160.194 32.8016 160.083 32.5799 159.869 32.3978C159.647 32.2157 159.37 32.1287 159.022 32.1287Z" fill="#333333"/>
<path d="M168.174 22.407H166.012V24.1091H168.174V31.5587H170.327V24.1091H172.552V22.407H170.327H168.174Z" fill="#333333"/>
<path d="M177.935 26.0407H175.631V22.407H173.478V31.5587H175.631V27.7349H177.935V31.5587H180.088V22.407H177.935V26.0407Z" fill="#333333"/>
<path d="M184.719 20.9504L185.535 21.8054H187.134V21.7183L185.313 19.9529H184.134L182.344 21.6945V21.8054H183.912L184.719 20.9504Z" fill="#333333"/>
<path d="M185.147 22.407H183.698L180.872 31.5587H183.184L183.587 29.8486H185.82L186.224 31.5587H188.535L185.709 22.407H185.147ZM183.999 28.1466L184.712 25.1145L185.424 28.1466H183.999Z" fill="#333333"/>
<path d="M184.727 32.01C184.379 32.01 184.094 32.0971 183.88 32.2792C183.667 32.4613 183.556 32.6829 183.556 32.9521C183.556 33.2213 183.667 33.4429 183.88 33.625C184.094 33.8071 184.379 33.8942 184.727 33.8942C185.076 33.8942 185.361 33.8071 185.575 33.625C185.788 33.4508 185.899 33.2213 185.899 32.9521C185.899 32.6829 185.788 32.4613 185.575 32.2792C185.353 32.105 185.076 32.01 184.727 32.01Z" fill="#333333"/>
<path d="M194.687 22.407H192.47H190.317H188.155V24.1091H190.317V31.5587H192.47V24.1091H194.687V22.407Z" fill="#333333"/>
</g>
<defs>
<clipPath id="clip0_4329_13095">
<rect width="196" height="28.5" fill="white" transform="translate(0 5.77808)"/>
</clipPath>
</defs>
</svg>
