<svg width="16" height="16" fill="none" xmlns="http://www.w3.org/2000/svg"><g clip-path="url(#clip0_4329_13080)"><path d="M13.98 1.698c2.343 1.969 2 5.188.343 6.906l-5.5 5.594c-.313.313-.719.5-1.156.5-.47 0-.875-.188-1.188-.5L1.01 8.604c-1.687-1.718-2.03-4.937.313-6.906C3.135.167 5.917.385 7.667 2.167c1.718-1.782 4.5-2 6.312-.469zm-.75 5.844c1.155-1.156 1.374-3.344-.22-4.719-1.218-1-3.093-.844-4.25.344L7.667 4.292 6.573 3.167C5.385 1.979 3.51 1.823 2.292 2.854.698 4.198.917 6.386 2.072 7.542l5.47 5.594c.093.062.156.062.218 0l5.47-5.594z" fill="#fff"/></g><defs><clipPath id="clip0_4329_13080"><path fill="#fff" d="M0 0h16v16H0z"/></clipPath></defs></svg>