<svg width="29" height="29" fill="none" xmlns="http://www.w3.org/2000/svg"><path d="M25.916 0H8.295c-.208 0-.416.008-.632.023C4.574.28 3.03 1.748 2.28 2.928c-.988 1.562-1.196 3.574-.572 5.539.817 2.563 3.104 9.764 3.104 9.764L0 21.75l.282.761c.022.062.58 1.523 1.82 2.975C3.78 27.46 5.925 28.5 8.301 28.5H23.28L28.5 6.098 25.916 0z" fill="#FC0001"/><path d="M6.527 6.82C6.156 5.212 8.63 3.8 9.84 6.58l3.542-1.243S12.446.676 7.738 1.064c-4.708.389-6.067 3.977-5.08 7.069 1.538 4.832 7.411 10.145 8.02 13.757.305 1.825-3.312 3.418-6.2-2.144L1.21 22.138s2.406 6.424 8.674 5.174c5.361-1.072 6.23-5.78 3.78-9.563-2.822-4.342-6.765-9.313-7.137-10.929z" fill="#fff"/><path d="M25.225 1.04H11.08a5.601 5.601 0 011.879 1.74 7.103 7.103 0 011.04 2.284h3.297v21.642h4.685V5.064h4.686l-1.448-4.023h.007z" fill="#fff"/></svg>