<svg width="196" height="40" fill="none" xmlns="http://www.w3.org/2000/svg"><g clip-path="url(#clip0_4329_13095)"><path d="M25.916 5.778H8.295c-.208 0-.416.008-.632.023-3.089.257-4.633 1.725-5.383 2.906-.988 1.56-1.196 3.573-.572 5.538.817 2.563 3.104 9.764 3.104 9.764L0 27.528l.282.761c.022.062.58 1.523 1.82 2.975 1.678 1.973 3.824 3.014 6.2 3.014H23.28l5.22-22.402-2.584-6.098z" fill="#FC0001"/><path d="M6.527 12.598c-.371-1.608 2.102-3.021 3.312-.24l3.542-1.243s-.936-4.661-5.643-4.273c-4.708.389-6.067 3.977-5.08 7.069 1.538 4.832 7.411 10.145 8.02 13.757.305 1.825-3.312 3.418-6.2-2.144L1.21 27.916s2.406 6.424 8.674 5.174c5.361-1.072 6.23-5.78 3.78-9.563-2.822-4.342-6.765-9.313-7.137-10.929z" fill="#fff"/><path d="M25.225 6.819H11.08a5.601 5.601 0 011.879 1.74 7.102 7.102 0 011.04 2.284h3.297v21.64h4.685v-21.64h4.686l-1.448-4.024h.007z" fill="#fff"/><path d="M36.171 11.537l2.921 5.724h1.354V8.996h-1.33v5.763l-2.945-5.763h-1.338v8.265h1.338v-5.724zm7.212 2.059h2.858v3.665h1.378V8.996H46.24v3.436h-2.858V8.996h-1.385v8.265h1.385v-3.665zm9.271-5.106l-1.109-1.72h-1.56l1.529 1.718h1.14zm-1.987 6.863h2.525l.538 1.916h1.45l-2.637-8.273h-1.227l-2.629 8.273h1.441l.539-1.916zm1.258-4.489l.934 3.333h-1.868l.934-3.333zm7.957 6.397l1.37-3.008 1.36 3.008h1.6l-2.114-4.172 2.067-4.093h-1.552l-1.322 2.945-1.354-2.945h-1.583l2.082 4.077-2.13 4.188h1.576zm9.167-2.525c0 .396-.048.696-.15.918a.867.867 0 01-.436.451 1.61 1.61 0 01-.68.127c-.27 0-.492-.04-.681-.127a.827.827 0 01-.428-.451c-.095-.222-.15-.522-.15-.918v-5.74h-1.378v5.74c0 .633.11 1.14.34 1.528.23.387.539.665.935.847a3.33 3.33 0 001.353.269c.507 0 .935-.087 1.33-.27a2.15 2.15 0 00.958-.846c.238-.388.357-.895.357-1.528v-5.74H69.04v5.74h.008zm8.685-8.622H76.57l-.728 1.513h.815l1.077-1.513zm-4.616 9.239h2.526l.538 1.916h1.449l-2.636-8.273h-1.228L71.14 17.27h1.44l.54-1.916zm1.259-4.489l.934 3.333h-1.868l.934-3.333zm.016-3.158l.712.8h1.109l-1.41-1.402h-.823l-1.409 1.401h1.093l.728-.8zm3.017 2.446h2.081v7.11h1.378v-7.11h2.106V8.996h-5.566v1.156zm13.378 3.024a1.46 1.46 0 00-.49-.222c.07-.031.158-.055.221-.102.285-.183.499-.412.641-.697.143-.285.214-.594.214-.926 0-.388-.055-.72-.166-.998a1.77 1.77 0 00-.491-.696 2.084 2.084 0 00-.776-.412 3.741 3.741 0 00-1.037-.135h-2.462v8.273h2.605c.522 0 .957-.095 1.33-.277.364-.182.649-.451.847-.815.198-.357.293-.8.293-1.33a2.5 2.5 0 00-.175-.95 1.679 1.679 0 00-.554-.729v.016zm-1.884-3.024c.253 0 .451.04.618.119a.728.728 0 01.356.38c.079.174.119.396.119.665 0 .245-.04.459-.127.633a.86.86 0 01-.372.396 1.24 1.24 0 01-.594.134h-1.077v-2.327h1.085-.008zm1.108 5.36a.949.949 0 01-.356.443 1.105 1.105 0 01-.61.158H87.82V13.54h1.275c.253 0 .451.056.602.159.15.103.261.26.332.45.072.199.103.428.103.698 0 .269-.04.475-.119.665zm5.471-8.701a.346.346 0 01.135.127.377.377 0 01.047.19.36.36 0 01-.063.214.437.437 0 01-.206.126 1.8 1.8 0 01-.364.064l.047.807h.974v-.38a.976.976 0 00.467-.237c.142-.127.222-.333.222-.602a.925.925 0 00-.428-.792 1.549 1.549 0 00-.53-.214 3.44 3.44 0 00-.745-.07l-.031.696c.095 0 .19 0 .269.024.08.015.15.04.206.07v-.023zm-1.203 8.542h2.525l.538 1.916h1.449l-2.636-8.273h-1.227L92.3 17.27h1.441l.538-1.916zm1.258-4.489l.934 3.333h-1.868l.934-3.333zm5.534.673l2.913 5.724h1.354V8.996h-1.33v5.763l-2.937-5.763h-1.338v8.265h1.338v-5.724zm-63.99 13.696c.04-.3.095-.538.182-.72a.884.884 0 01.332-.396 1 1 0 01.507-.119c.293 0 .53.048.704.143a.78.78 0 01.372.483c.072.23.096.538.072.942h2.153c-.016-.69-.158-1.275-.412-1.774a2.614 2.614 0 00-1.116-1.132c-.483-.261-1.076-.396-1.773-.396-.499 0-.95.095-1.354.277a2.69 2.69 0 00-1.03.808c-.284.356-.498.784-.656 1.282a5.943 5.943 0 00-.23 1.703v1.274c0 .633.072 1.203.214 1.71.143.499.356.926.633 1.283a2.82 2.82 0 001.037.807c.412.182.88.277 1.418.277.657 0 1.235-.126 1.725-.372.491-.245.871-.61 1.14-1.1.27-.483.404-1.069.396-1.758h-2.153c.024.404-.016.713-.103.927a.807.807 0 01-.388.443 1.47 1.47 0 01-.625.119c-.246 0-.42-.04-.563-.12a.808.808 0 01-.34-.395 2.482 2.482 0 01-.166-.72 10.674 10.674 0 01-.048-1.109v-1.29c0-.436.016-.8.056-1.093l.016.016zm9.729.807h-2.303v-3.633h-2.154v9.152h2.154v-3.824h2.303v3.824h2.154v-9.152H46.81v3.634zm5.637-3.633h-2.145v9.152h2.145v-9.152zm-.317-.483l1.75-1.971h-2.233l-1.25 1.971h1.733zM58.25 28.1l-2.295-5.693H53.81v9.152h2.145v-5.692l2.296 5.692h2.145v-9.152h-2.145v5.692zm7.846-2.06h-2.304v-3.633H61.64v9.152h2.153v-3.824h2.304v3.824h2.153v-9.152h-2.153v3.634zm7.814-3.633h-2.153v1.702h2.153v7.45h2.161v-7.45h2.217v-1.702H73.91zm10.68 4.948c.237-.23.427-.523.554-.871.126-.348.198-.792.198-1.314 0-.602-.12-1.109-.364-1.52a2.292 2.292 0 00-1.038-.934c-.45-.214-.981-.317-1.59-.317h-3.136v9.152h2.154v-3.23h.61l1.297 3.23h2.304v-.095l-1.544-3.713a3.11 3.11 0 00.547-.396l.008.008zm-3.215-3.246h.982c.19 0 .34.047.46.15a.963.963 0 01.276.436c.064.19.095.411.095.68 0 .27-.031.483-.095.674a.861.861 0 01-.293.427.805.805 0 01-.49.15h-.935V24.11zm6.334 7.956c-.349 0-.634.088-.847.27a.828.828 0 00-.325.672c0 .27.11.491.325.673.221.182.498.27.847.27.348 0 .633-.088.847-.27a.84.84 0 00.324-.672.85.85 0 00-.324-.673c-.222-.175-.499-.27-.847-.27zm1.061-9.658h-2.146v9.152h2.146v-9.152zm10.046.887a2.848 2.848 0 00-1.077-.76 3.65 3.65 0 00-1.377-.254c-.507 0-.966.087-1.386.254a2.909 2.909 0 00-1.069.76c-.3.34-.53.76-.696 1.258-.166.5-.246 1.085-.246 1.742v1.378c0 .665.08 1.242.246 1.741.166.499.396.918.696 1.251.301.34.657.594 1.077.76.412.166.879.253 1.386.253.118 0 .221-.023.332-.031l1.718 1.575 1.338-1.156-1.251-1.124c.11-.087.222-.174.317-.285.3-.34.538-.752.704-1.25.166-.5.246-1.077.246-1.742v-1.378c0-.665-.08-1.243-.246-1.742-.166-.498-.396-.918-.704-1.258l-.008.008zm-3.373 6.135a2.17 2.17 0 01-.213-.712 6.558 6.558 0 01-.072-1.045v-1.386c0-.412.024-.76.072-1.053.047-.293.118-.522.213-.704a.951.951 0 01.372-.396c.15-.087.333-.127.547-.127.198 0 .38.04.53.127.15.087.277.213.38.396.103.182.182.411.23.704.047.293.079.641.079 1.053v1.386c0 .403-.024.752-.08 1.044a2.434 2.434 0 01-.229.713c-.103.182-.23.317-.38.404a1.05 1.05 0 01-.53.126c-.214 0-.396-.04-.547-.126a.974.974 0 01-.372-.404zm9.453-.792c0 .38-.032.665-.095.855-.064.19-.166.325-.301.396-.135.071-.317.103-.53.103-.214 0-.396-.032-.531-.103-.142-.063-.245-.198-.317-.396-.071-.198-.102-.483-.102-.855v-6.23h-2.162v6.23c0 .713.135 1.29.396 1.742.261.451.626.784 1.093.99.467.206 1.013.316 1.63.316.618 0 1.172-.103 1.631-.316a2.328 2.328 0 001.077-.99c.253-.451.38-1.03.38-1.742v-6.23h-2.153v6.23h-.016zm6.626-7.41l.697.729h1.29l-1.504-1.378h-.95l-1.512 1.378h1.29l.689-.729zm2.486 2.075a3.002 3.002 0 00-1.069-.76 3.557 3.557 0 00-1.377-.262c-.499 0-.966.087-1.386.261a2.942 2.942 0 00-1.069.76c-.3.333-.53.753-.696 1.26-.166.498-.246 1.084-.246 1.74v1.386c0 .657.08 1.235.246 1.734.166.499.396.918.696 1.25.301.341.658.595 1.077.76.412.167.879.254 1.386.254.506 0 .957-.087 1.377-.253a2.82 2.82 0 001.069-.76c.301-.34.538-.752.696-1.25a5.704 5.704 0 00.246-1.735v-1.385c0-.657-.079-1.235-.246-1.742-.166-.506-.395-.926-.696-1.258h-.008zm-1.235 4.385c0 .404-.024.752-.079 1.037a2.398 2.398 0 01-.222.705.943.943 0 01-.38.404 1.07 1.07 0 01-.53.126 1.13 1.13 0 01-.547-.126.943.943 0 01-.38-.404 2.167 2.167 0 01-.213-.705 6.386 6.386 0 01-.072-1.037v-1.393c0-.412.024-.76.072-1.053a2.31 2.31 0 01.213-.704.953.953 0 01.372-.396c.151-.087.333-.127.547-.127.213 0 .38.04.53.127.151.087.277.213.38.396.103.182.174.411.23.704.055.293.079.641.079 1.053v1.393zm.332-6.475h1.045l1.346-1.734h-1.441l-.95 1.733zm5.059 4.021c.04-.3.095-.538.182-.72a.882.882 0 01.333-.396.995.995 0 01.506-.119c.293 0 .531.048.705.143a.785.785 0 01.372.483c.071.23.095.538.071.942h2.154c-.016-.69-.159-1.275-.412-1.774a2.611 2.611 0 00-1.116-1.132c-.483-.261-1.077-.396-1.774-.396-.498 0-.95.095-1.353.277a2.698 2.698 0 00-1.03.808c-.285.356-.498.784-.657 1.282a5.957 5.957 0 00-.229 1.703v1.274a6.3 6.3 0 00.214 1.71c.142.499.356.926.633 1.283a2.81 2.81 0 001.037.807c.412.182.879.277 1.417.277.657 0 1.235-.126 1.726-.372.491-.245.871-.61 1.14-1.1.269-.483.404-1.069.396-1.758h-2.154c.024.404-.015.713-.103.927-.087.213-.221.364-.387.443-.167.079-.38.119-.626.119-.245 0-.419-.04-.562-.12a.81.81 0 01-.34-.395 2.464 2.464 0 01-.167-.72 10.997 10.997 0 01-.047-1.109v-1.29c0-.436.016-.8.055-1.093l.016.016zm11.456 2.953h1.092v1.48a1.01 1.01 0 00-.174.111 1.012 1.012 0 01-.657.206c-.261 0-.475-.04-.657-.119a.889.889 0 01-.42-.38 1.993 1.993 0 01-.229-.688 6.529 6.529 0 01-.072-1.053v-1.528c0-.42.024-.776.079-1.061.056-.285.127-.523.23-.697.103-.174.23-.3.38-.372.15-.079.317-.11.515-.11.237 0 .435.047.593.134.159.087.278.237.357.451.087.206.134.491.15.84h2.058c-.015-.658-.134-1.22-.372-1.679a2.464 2.464 0 00-1.06-1.069c-.475-.245-1.077-.372-1.805-.372-.491 0-.935.08-1.338.246a2.743 2.743 0 00-1.045.728 3.309 3.309 0 00-.681 1.235c-.159.499-.246 1.085-.246 1.75v1.512c0 .673.079 1.258.238 1.75.158.49.388.902.681 1.226.293.325.657.57 1.068.729a3.95 3.95 0 001.417.237c.563 0 1.061-.071 1.473-.214.42-.142.76-.3 1.037-.49a4.59 4.59 0 00.626-.491v-3.824h-3.246v1.512h.008zm6.65-5.779h-2.146v9.152h2.146v-9.152zm5.177 0h-1.449l-2.826 9.152h2.312l.403-1.71h2.233l.404 1.71h2.311l-2.826-9.152h-.562zm-1.148 5.74l.713-3.032.712 3.032h-1.425zm10.767-4.077a.782.782 0 01.459-.127c.198 0 .364.047.491.15a.908.908 0 01.277.412c.055.174.087.38.087.61h2.145c0-.578-.126-1.077-.372-1.505a2.594 2.594 0 00-1.037-.99c-.443-.237-.95-.348-1.528-.348-.435 0-.839.064-1.203.183a2.854 2.854 0 00-.958.514 2.335 2.335 0 00-.633.808c-.151.316-.23.672-.23 1.068s.071.768.23 1.077c.15.309.348.578.601.808.254.23.531.427.847.593.317.166.634.325.958.46.262.11.467.221.626.324.158.103.269.206.348.3a.82.82 0 01.158.326c.024.118.04.245.04.387 0 .167-.024.317-.063.452a.634.634 0 01-.222.324c-.103.08-.253.127-.451.127-.206 0-.388-.024-.531-.071a.725.725 0 01-.348-.238 1.1 1.1 0 01-.198-.443 3.307 3.307 0 01-.063-.681h-2.161c0 .538.095 1.005.285 1.401.19.396.443.713.76.958.316.253.672.435 1.06.554.396.119.792.182 1.196.182a3.96 3.96 0 001.195-.166c.349-.11.657-.277.911-.499.253-.221.443-.49.578-.807.134-.317.197-.681.197-1.093 0-.387-.055-.728-.166-1.037a2.555 2.555 0 00-.491-.823 3.314 3.314 0 00-.807-.65 6.472 6.472 0 00-1.101-.514 5.45 5.45 0 01-.482-.261 2.505 2.505 0 01-.388-.277 1.192 1.192 0 01-.262-.309.747.747 0 01-.095-.372c0-.166.032-.325.095-.46a.776.776 0 01.277-.332l-.031-.015zm11.614-1.125c-.032.293-.127.523-.278.681-.126.127-.34.19-.617.214V22.4h-2.153v5.976c0 .38-.032.681-.095.918-.064.238-.167.412-.301.523a.82.82 0 01-.531.166.818.818 0 01-.53-.166c-.143-.11-.245-.285-.317-.523-.071-.237-.103-.546-.103-.918V22.4h-2.161v5.977c0 .713.135 1.314.396 1.805.261.491.625.863 1.092 1.116.468.254 1.014.38 1.631.38.618 0 1.172-.126 1.631-.38a2.625 2.625 0 001.077-1.116c.253-.49.38-1.092.38-1.805v-3.491c.53-.024.958-.135 1.266-.348.341-.238.578-.578.713-1.03.135-.45.198-.99.198-1.623h-1.235c0 .404-.016.76-.048 1.053l-.015.008zm-3.658 9.184c-.348 0-.633.087-.847.269a.817.817 0 00-.325.673c0 .269.111.49.325.673.222.174.499.269.847.269s.633-.087.847-.27a.827.827 0 00.325-.672.85.85 0 00-.325-.673c-.222-.182-.499-.27-.847-.27zm9.152-9.722h-2.162v1.702h2.162v7.45h2.153v-7.45h2.225v-1.702h-4.378zm9.761 3.633h-2.304v-3.633h-2.153v9.152h2.153v-3.824h2.304v3.824h2.153v-9.152h-2.153v3.634zm6.784-5.09l.816.855h1.599v-.087l-1.821-1.765h-1.179l-1.79 1.742v.11h1.568l.807-.855zm.428 1.457h-1.449l-2.826 9.152h2.312l.403-1.71h2.233l.404 1.71h2.311l-2.826-9.152h-.562zm-1.148 5.74l.713-3.032.712 3.032h-1.425zm.728 3.863c-.348 0-.633.087-.847.27a.852.852 0 00-.324.672c0 .27.111.49.324.673.214.182.499.27.847.27.349 0 .634-.088.848-.27a.841.841 0 00.324-.673c0-.27-.111-.49-.324-.673-.222-.174-.499-.269-.848-.269zm9.96-9.603h-6.532v1.702h2.162v7.45h2.153v-7.45h2.217v-1.702z" fill="#333"/></g><defs><clipPath id="clip0_4329_13095"><path fill="#fff" transform="translate(0 5.778)" d="M0 0h196v28.5H0z"/></clipPath></defs></svg>