<svg width="16" height="16" viewBox="0 0 16 16" fill="none" xmlns="http://www.w3.org/2000/svg">
<g clip-path="url(#clip0_4329_13080)">
<path d="M13.9792 1.698C16.3229 3.66675 15.9792 6.8855 14.3229 8.60425L8.82291 14.198C8.51041 14.5105 8.10416 14.698 7.66666 14.698C7.19791 14.698 6.79166 14.5105 6.47916 14.198L1.01041 8.60425C-0.677094 6.8855 -1.02084 3.66675 1.32291 1.698C3.13541 0.166748 5.91666 0.385498 7.66666 2.16675C9.38541 0.385498 12.1667 0.166748 13.9792 1.698ZM13.2292 7.54175C14.3854 6.3855 14.6042 4.198 13.0104 2.823C11.7917 1.823 9.91666 1.97925 8.76041 3.16675L7.66666 4.29175L6.57291 3.16675C5.38541 1.97925 3.51041 1.823 2.29166 2.85425C0.697906 4.198 0.916656 6.3855 2.07291 7.54175L7.54166 13.1355C7.63541 13.198 7.69791 13.198 7.76041 13.1355L13.2292 7.54175Z" fill="white"/>
</g>
<defs>
<clipPath id="clip0_4329_13080">
<rect width="16" height="16" fill="white"/>
</clipPath>
</defs>
</svg>
